<?xml version="1.0" standalone="no"?>
<!DOCTYPE svg PUBLIC "-//W3C//DTD SVG 20010904//EN"
 "http://www.w3.org/TR/2001/REC-SVG-20010904/DTD/svg10.dtd">
<svg version="1.0" xmlns="http://www.w3.org/2000/svg"
 width="639.000000pt" height="711.000000pt" viewBox="0 0 639.000000 711.000000"
 preserveAspectRatio="xMidYMid meet">

<g transform="translate(0.000000,711.000000) scale(0.100000,-0.100000)"
fill="#000000" stroke="none">
<path d="M3095 6854 c-184 -14 -488 -76 -656 -133 -324 -110 -519 -226 -774
-459 -215 -197 -435 -529 -520 -784 -122 -369 -112 -945 30 -1663 19 -93 32
-171 30 -173 -2 -2 -16 3 -32 11 -85 44 -184 27 -247 -43 -50 -56 -67 -102
-73 -200 -7 -108 11 -182 122 -506 89 -258 125 -407 125 -514 0 -115 39 -188
122 -231 49 -25 127 -25 177 1 l38 19 12 -122 c7 -67 21 -216 31 -332 11 -124
26 -230 36 -259 52 -150 147 -247 503 -515 151 -113 329 -253 395 -311 133
-117 165 -138 245 -169 134 -51 191 -56 586 -56 395 0 452 5 586 56 80 30 112
53 239 164 63 56 178 149 255 206 77 58 192 144 255 191 222 166 307 252 365
371 40 82 49 135 75 432 11 127 23 256 26 287 l6 57 39 -19 c76 -39 182 -19
244 47 33 35 55 110 55 184 0 104 39 263 126 516 100 291 124 383 124 479 0
103 -22 166 -78 224 -70 71 -159 87 -245 43 -16 -8 -31 -12 -34 -10 -2 3 0 22
6 43 16 59 78 405 95 533 56 401 60 802 11 1066 -36 190 -124 397 -259 604
-85 130 -165 228 -282 342 -126 123 -148 142 -269 226 -276 192 -584 307 -992
372 -128 20 -390 33 -498 25z m290 -79 c759 -63 1315 -367 1682 -920 196 -296
266 -514 281 -882 16 -384 -23 -747 -137 -1285 -94 -441 -210 -1224 -256
-1728 -42 -467 -40 -454 -88 -544 -55 -105 -181 -218 -502 -451 -175 -126
-270 -202 -377 -301 -141 -129 -231 -159 -531 -176 -242 -14 -590 0 -692 28
-98 26 -180 72 -263 148 -110 102 -203 176 -402 321 -374 273 -473 373 -514
516 -8 30 -25 162 -36 294 -52 602 -167 1411 -270 1890 -45 208 -90 469 -117
680 -22 175 -26 690 -5 825 47 309 165 557 403 850 309 381 775 629 1334 711
140 20 329 37 375 34 25 -2 77 -7 115 -10z m-2224 -3203 c74 -48 75 -51 113
-272 37 -221 104 -672 131 -890 l17 -134 -31 -28 c-39 -35 -68 -42 -119 -28
-64 17 -83 52 -94 174 -14 165 -34 246 -138 556 -55 162 -104 326 -110 364
-34 214 87 349 231 258z m4326 6 c70 -48 96 -155 69 -286 -9 -45 -57 -198
-106 -341 -95 -278 -125 -397 -138 -557 -11 -122 -30 -157 -94 -174 -50 -14
-77 -8 -118 27 -38 32 -40 -2 31 498 71 499 117 756 137 779 9 10 37 32 61 48
56 35 111 37 158 6z"/>
<path d="M3020 6374 c-25 -2 -109 -8 -186 -14 -339 -26 -710 -112 -926 -215
-221 -106 -352 -334 -365 -636 -12 -275 66 -513 214 -651 92 -85 188 -118 344
-118 109 0 193 14 422 70 262 65 327 72 678 77 365 6 493 -5 736 -63 283 -68
374 -84 473 -84 202 0 332 65 431 217 76 117 111 226 130 405 28 255 -49 515
-199 667 -79 80 -169 128 -362 192 -220 72 -439 115 -705 139 -124 11 -605 21
-685 14z m608 -84 c372 -27 723 -108 958 -221 102 -48 177 -127 235 -244 62
-128 74 -186 73 -370 -1 -131 -5 -175 -22 -240 -32 -119 -94 -234 -158 -295
-130 -123 -284 -137 -619 -55 -364 89 -417 95 -828 96 -424 0 -455 -3 -807
-87 -245 -58 -337 -70 -437 -55 -42 6 -100 22 -128 35 -167 78 -280 325 -279
611 2 247 99 471 246 567 181 118 609 228 1008 257 169 12 589 13 758 1z"/>
<path d="M2860 4784 c-135 -36 -216 -125 -235 -261 -17 -127 54 -290 150 -341
26 -14 86 -16 450 -18 231 0 437 3 458 8 105 25 201 208 182 345 -20 141 -107
237 -241 269 -81 18 -690 17 -764 -2z m440 -63 c305 13 404 -14 462 -124 32
-61 32 -183 0 -249 -55 -111 -94 -125 -311 -108 -108 9 -205 10 -316 4 -328
-18 -344 -14 -399 91 -27 53 -31 70 -31 140 0 92 23 147 77 189 69 52 146 67
308 59 63 -4 158 -4 210 -2z"/>
<path d="M1915 4670 c-174 -69 -226 -286 -88 -367 57 -33 123 -38 359 -25 190
11 218 17 262 64 76 82 27 211 -103 273 -71 33 -201 64 -300 70 -65 4 -89 2
-130 -15z m253 -79 c51 -11 113 -29 137 -41 53 -26 105 -82 105 -113 0 -28
-32 -65 -63 -72 -50 -12 -410 -23 -444 -13 -69 19 -97 70 -74 131 14 37 72 98
106 113 43 19 125 17 233 -5z"/>
<path d="M4399 4679 c-276 -40 -414 -138 -392 -275 7 -44 58 -96 110 -113 23
-7 127 -15 263 -18 217 -6 227 -5 267 16 91 46 119 149 69 250 -32 62 -80 104
-151 130 -59 22 -77 23 -166 10z m187 -104 c69 -52 100 -134 69 -181 -31 -47
-71 -56 -234 -49 -260 10 -287 14 -317 41 -22 21 -25 31 -20 57 13 65 86 112
222 141 109 24 115 25 182 21 49 -2 69 -8 98 -30z"/>
<path d="M1970 4250 c-126 -15 -232 -70 -310 -160 -57 -66 -76 -103 -101 -189
-52 -181 -2 -365 132 -485 l49 -44 0 -79 c0 -138 37 -232 129 -326 96 -100
221 -148 386 -150 128 -1 199 15 305 65 172 82 269 223 270 393 0 69 17 92 23
34 3 -24 10 -83 16 -132 6 -48 23 -124 38 -170 24 -72 27 -92 23 -162 -5 -69
-13 -95 -57 -190 -68 -147 -86 -213 -86 -310 0 -95 9 -121 63 -179 46 -50 111
-81 212 -102 38 -8 81 -22 96 -32 36 -24 138 -23 175 1 15 10 53 22 84 28 133
25 222 79 266 163 17 33 21 57 20 126 -1 98 -28 190 -94 323 -39 75 -42 90
-47 178 -4 81 -1 105 17 153 25 67 51 208 51 277 0 51 16 76 24 37 3 -13 7
-53 9 -89 6 -93 42 -166 119 -243 117 -116 257 -169 443 -168 166 0 276 38
378 132 95 86 139 190 142 331 l2 85 51 48 c131 123 178 283 136 466 -46 205
-208 346 -424 371 -149 16 -367 -11 -529 -66 -176 -59 -339 -179 -397 -290
-27 -50 -44 -69 -44 -46 0 5 -23 34 -51 65 -104 114 -240 150 -359 95 -63 -30
-144 -98 -166 -140 -8 -16 -18 -29 -23 -29 -4 0 -16 19 -27 43 -26 59 -146
176 -227 221 -142 80 -291 125 -482 146 -100 11 -140 11 -235 0z m313 -85
c267 -47 490 -172 563 -317 41 -81 47 -132 28 -228 -25 -127 -29 -131 -69 -74
-71 99 -205 182 -366 226 -110 30 -296 32 -377 4 -77 -26 -132 -60 -183 -110
-45 -44 -109 -150 -109 -179 0 -30 -20 -28 -50 5 -212 230 -85 617 223 677 70
14 247 12 340 -4z m2258 5 c130 -24 234 -105 291 -225 70 -152 51 -315 -53
-445 -36 -44 -47 -49 -56 -22 -53 152 -147 247 -295 298 -80 28 -267 26 -376
-4 -177 -48 -324 -146 -393 -262 -14 -24 -24 1 -43 110 -14 80 -15 106 -6 141
44 162 201 293 439 365 161 50 365 68 492 44z m-1206 -234 c51 -23 126 -96
147 -141 10 -22 8 -27 -15 -45 -60 -48 -97 -231 -97 -485 0 -250 24 -360 82
-372 24 -5 28 -10 28 -40 0 -31 -2 -34 -22 -26 -13 4 -49 8 -80 8 -52 0 -60
-3 -96 -38 l-38 -37 -25 26 c-49 53 -125 70 -179 39 -35 -20 -36 -19 -32 19 3
27 9 35 31 39 62 13 86 144 78 424 -8 255 -40 399 -96 435 -27 17 -26 30 3 76
31 48 70 84 126 116 58 33 118 34 185 2z m-934 -237 c46 -11 116 -36 156 -55
75 -36 174 -118 198 -165 14 -27 20 -69 10 -69 -3 0 -33 23 -67 51 -81 65
-224 135 -313 154 -168 35 -331 3 -492 -97 -31 -18 -33 -18 -27 -1 9 24 53 83
79 106 105 92 276 121 456 76z m1983 6 c81 -21 140 -59 191 -122 61 -74 59
-91 -6 -52 -172 101 -361 124 -535 65 -104 -35 -217 -100 -286 -164 -15 -14
-31 -23 -34 -19 -15 15 23 85 71 132 142 135 414 208 599 160z m-842 -83 c20
-88 17 -387 -6 -491 -17 -83 -37 -134 -55 -146 -38 -23 -51 394 -18 559 19 94
42 150 57 141 5 -3 14 -31 22 -63z m-531 -28 c47 -170 47 -624 -1 -624 -14 0
-49 105 -65 197 -19 109 -19 319 0 417 23 121 35 123 66 10z m-652 -57 c40
-20 38 -37 -2 -25 -66 20 -127 -30 -127 -105 1 -71 88 -120 151 -86 19 9 19 9
10 -9 -6 -11 -23 -30 -38 -42 -26 -21 -35 -22 -125 -17 -53 4 -106 12 -117 18
-57 37 -81 161 -42 225 15 25 30 34 68 42 69 14 194 14 222 -1z m1980 2 c27
-6 55 -17 62 -25 10 -13 8 -13 -16 -4 -40 15 -92 -4 -116 -44 -59 -96 35 -188
145 -141 16 7 17 6 7 -13 -22 -41 -54 -53 -165 -59 -95 -5 -108 -4 -127 13
-30 26 -59 92 -59 134 0 45 31 113 61 134 28 19 131 22 208 5z m-1684 -146
l59 -47 -29 -12 c-55 -23 -215 -67 -221 -62 -3 4 1 19 9 35 20 39 27 101 18
150 l-8 43 56 -30 c31 -17 83 -51 116 -77z m1348 70 c-11 -53 -7 -115 11 -157
18 -44 17 -44 -90 -12 -112 35 -144 47 -144 56 0 16 199 150 222 150 5 0 5
-17 1 -37z m-2027 -67 l1 -75 -46 24 c-89 45 -89 45 -25 88 31 20 60 37 63 37
3 0 6 -34 7 -74z m2600 38 c62 -41 61 -46 -13 -87 l-48 -26 0 75 c0 41 1 74 3
74 2 0 28 -16 58 -36z m79 -267 c-48 -165 -221 -277 -426 -277 -81 0 -199 25
-266 57 -66 32 -155 110 -188 167 -22 38 -52 142 -43 151 2 2 46 -9 97 -26
302 -97 520 -89 753 27 36 18 70 39 75 46 15 25 14 -90 -2 -145z m-2766 109
c219 -124 475 -136 774 -36 49 17 92 29 94 27 7 -8 -17 -99 -37 -138 -69 -134
-228 -224 -420 -236 -202 -13 -379 75 -446 221 -31 67 -50 196 -29 196 2 0 30
-15 64 -34z m1267 -534 c21 -16 45 -36 53 -45 21 -26 54 -20 87 14 61 64 115
70 159 17 58 -69 6 -249 -102 -354 -100 -97 -219 -48 -304 125 -27 55 -33 78
-33 137 -1 76 13 106 59 125 32 13 40 11 81 -19z m-161 -307 c64 -115 156
-185 242 -185 82 0 105 11 176 81 71 70 105 131 130 228 l14 55 32 -84 c19
-48 35 -111 38 -149 l6 -67 -84 1 c-65 0 -93 -5 -123 -20 -54 -27 -93 -80
-108 -143 -14 -58 -27 -66 -89 -60 -36 3 -49 21 -68 94 -23 88 -121 142 -239
131 l-65 -7 6 69 c3 41 19 102 38 152 l32 84 14 -59 c7 -33 29 -87 48 -121z"/>
<path d="M1541 3187 c-70 -36 -85 -103 -65 -297 59 -574 151 -1049 250 -1289
75 -181 149 -276 337 -431 270 -225 341 -259 436 -210 79 40 115 114 93 196
-6 22 -37 85 -68 140 -137 238 -167 336 -167 554 0 85 5 184 12 220 25 128 8
212 -63 309 -38 51 -75 85 -300 271 -179 147 -249 243 -296 400 -38 127 -96
175 -169 137z m67 -79 c5 -7 20 -47 32 -88 54 -182 118 -263 388 -488 263
-218 295 -273 267 -450 -23 -139 -21 -334 4 -449 25 -116 59 -196 145 -348 86
-150 95 -197 46 -238 -63 -54 -148 -23 -287 105 -32 29 -92 81 -134 115 -219
179 -307 358 -398 818 -52 260 -131 840 -131 958 0 56 42 96 68 65z"/>
<path d="M4860 3186 c-32 -18 -65 -76 -81 -141 -27 -113 -110 -235 -228 -339
-32 -28 -117 -100 -190 -160 -73 -60 -148 -129 -166 -153 -68 -90 -98 -186
-84 -268 22 -125 30 -271 20 -369 -19 -169 -53 -265 -160 -448 -67 -115 -87
-176 -77 -231 13 -69 96 -137 169 -137 48 0 160 59 237 124 36 31 108 91 160
134 111 93 167 151 215 226 127 199 219 543 290 1079 63 484 69 574 38 632
-29 54 -96 78 -143 51z m79 -101 c13 -26 12 -51 -3 -195 -85 -804 -201 -1275
-364 -1478 -26 -32 -90 -94 -142 -137 -52 -43 -118 -100 -146 -126 -29 -26
-80 -66 -114 -88 -74 -48 -122 -53 -164 -20 -60 47 -52 86 52 268 83 145 107
203 133 326 24 115 25 321 3 452 -15 87 -15 97 1 145 32 98 69 138 323 346
204 167 288 280 334 445 10 39 24 77 30 85 17 20 41 10 57 -23z"/>
<path d="M2436 2809 c-141 -33 -208 -184 -139 -310 80 -149 283 -154 374 -11
24 39 29 56 29 112 0 56 -5 73 -29 112 -35 55 -74 84 -132 97 -51 12 -51 12
-103 0z m125 -92 c45 -30 71 -82 65 -130 -21 -175 -279 -164 -279 13 0 112
122 179 214 117z"/>
<path d="M3950 2811 c-106 -34 -162 -108 -162 -211 0 -124 98 -220 224 -220
53 0 138 48 173 98 27 39 30 51 30 121 0 68 -3 83 -27 119 -49 73 -163 118
-238 93z m127 -91 c46 -28 67 -65 67 -120 0 -88 -61 -144 -152 -137 -178 13
-166 277 13 277 22 0 54 -9 72 -20z"/>
<path d="M2794 1723 c-190 -131 -260 -184 -262 -200 -3 -17 7 -28 40 -49 56
-35 227 -150 253 -169 18 -15 18 -17 -28 -58 -57 -52 -121 -169 -137 -253 -15
-78 -4 -135 40 -207 81 -132 176 -158 403 -111 95 20 189 18 325 -7 201 -37
292 -7 370 124 45 75 52 149 24 244 -24 76 -84 178 -127 211 -21 17 -25 25
-16 35 6 8 76 58 156 113 117 79 145 102 145 121 0 13 -8 26 -17 30 -10 3
-131 84 -270 180 -139 95 -262 173 -274 173 -14 0 -43 -22 -78 -60 -49 -53
-61 -60 -94 -60 -32 0 -45 8 -95 60 -33 34 -68 60 -79 60 -11 0 -136 -80 -279
-177z m420 -19 c58 -10 109 10 164 66 l49 49 124 -86 c272 -189 257 -176 225
-184 -25 -7 -427 -27 -531 -26 -110 0 -508 20 -532 26 -30 8 -48 -7 257 204
l95 65 56 -53 c39 -37 67 -56 93 -61z m61 -259 c138 0 311 4 385 8 l135 8
-130 -91 c-210 -148 -278 -175 -429 -168 -112 5 -174 31 -339 144 -185 128
-183 116 -16 107 79 -5 257 -8 394 -8z m-260 -260 c49 -25 117 -50 150 -56
117 -22 264 4 368 65 24 14 51 26 60 26 30 0 93 -67 127 -136 63 -123 51 -231
-34 -313 -30 -29 -43 -34 -98 -38 -40 -3 -106 3 -182 16 -147 26 -175 26 -317
0 -195 -35 -260 -21 -325 72 -26 38 -29 50 -29 118 1 80 23 141 82 219 25 33
78 72 98 72 5 0 50 -20 100 -45z"/>
<path d="M6370 20 c-9 -16 -8 -20 5 -20 8 0 15 9 15 20 0 11 -2 20 -5 20 -2 0
-9 -9 -15 -20z"/>
</g>
</svg>
